{"asset":{"version":"2.0","generator":"THREE.GLTFExporter r175"},"scenes":[{"name":"AuxScene","nodes":[5]}],"scene":0,"nodes":[{"mesh":0},{"matrix":[0.5397761688446927,0,-0.5397761688446928,0,0,-0.7633587786259542,0,0,0.5397761688446928,0,0.5397761688446927,0,0,0,0,1],"children":[0]},{"children":[1]},{"matrix":[1,0,0,0,0,1,0,0,0,0,1,0,-36.4474167124763,32.67865484679929,34.28831213361703,1],"children":[2]},{"children":[3]},{"children":[4]}],"bufferViews":[{"buffer":0,"byteOffset":0,"byteLength":220176,"target":34962,"byteStride":12},{"buffer":0,"byteOffset":220176,"byteLength":146784,"target":34962,"byteStride":8},{"buffer":0,"byteOffset":366960,"byteLength":220176,"target":34962,"byteStride":12}],"buffers":[{"byteLength":587136,"uri":"data:application/octet-stream;base64,"}],"accessors":[{"bufferView":0,"componentType":5126,"count":18348,"max":[131.41404724121094,85.91597747802734,4.599999904632568],"min":[-0.2997072637081146,-0.29790177941322327,-0.6000000238418579],"type":"VEC3"},{"bufferView":1,"componentType":5126,"count":18348,"max":[131.41404724121094,85.52459716796875],"min":[-0.06459246575832367,-3.5999999046325684],"type":"VEC2"},{"bufferView":2,"componentType":5126,"count":18348,"max":[0.999999463558197,0.99994295835495,1],"min":[-1,-0.9989714026451111,-1],"type":"VEC3"}],"materials":[{"pbrMetallicRoughness":{"baseColorFactor":[1,0.24620132669705552,0,1],"metallicFactor":0.84,"roughnessFactor":0.48},"doubleSided":true,"extensions":{"KHR_materials_transmission":{"transmissionFactor":1},"KHR_materials_volume":{"thicknessFactor":0,"attenuationColor":[1,1,1]},"KHR_materials_clearcoat":{"clearcoatFactor":0.05,"clearcoatRoughnessFactor":0}}}],"meshes":[{"primitives":[{"mode":4,"attributes":{"POSITION":0,"TEXCOORD_0":1,"NORMAL":2},"material":0}]}],"extensionsUsed":["KHR_materials_transmission","KHR_materials_volume","KHR_materials_clearcoat"]}